<svg width="122" height="123" viewBox="0 0 122 123" fill="none" xmlns="http://www.w3.org/2000/svg">
<g clip-path="url(#clip0)">
<path d="M2.54175 0H119.458C120.862 0 122 1.14736 122 2.56258V120.438C122 121.853 120.862 123 119.458 123H2.54175C1.13803 123 0 121.853 0 120.437V2.56258C0 1.14736 1.13803 0 2.54175 0Z" fill="#FFC107"/>
<path d="M12.7082 10.25H109.291C110.695 10.25 111.833 11.3974 111.833 12.8126V110.187C111.833 111.603 110.695 112.75 109.291 112.75H12.7082C11.3045 112.75 10.1664 111.603 10.1664 110.187V12.8123C10.1667 11.3971 11.3045 10.25 12.7082 10.25Z" fill="#5D4037"/>
<path d="M68.625 87.1253C67.5315 87.1244 66.561 86.4185 66.2155 85.3726L53.375 46.5404L40.5345 85.3726C40.0403 86.6972 38.5746 87.3672 37.2607 86.869C36.0169 86.3974 35.3433 85.0391 35.7155 83.7529L50.9655 37.6279C51.5657 36.2862 53.1312 35.6892 54.462 36.2946C55.0494 36.5617 55.5195 37.036 55.7845 37.6279L71.0345 83.7529C71.4782 85.0956 70.7581 86.5466 69.4263 86.9939C69.1678 87.0806 68.8973 87.1251 68.625 87.1253Z" fill="#FFC107"/>
<path d="M63.5417 71.7502H43.2085C41.8048 71.7502 40.6667 70.6028 40.6667 69.1876C40.6667 67.7724 41.8048 66.625 43.2085 66.625H63.5417C64.9455 66.625 66.0835 67.7724 66.0835 69.1876C66.0833 70.6028 64.9455 71.7502 63.5417 71.7502Z" fill="#FFC107"/>
<path d="M83.875 87.1251C82.4713 87.1251 81.3333 85.9777 81.3333 84.5625V48.6876C81.3333 47.2724 82.4713 46.125 83.875 46.125C85.2787 46.125 86.4167 47.2724 86.4167 48.6876V84.5625C86.4167 85.9777 85.2787 87.1251 83.875 87.1251Z" fill="#FFC107"/>
<path d="M83.875 41.0002C85.2788 41.0002 86.4167 39.8529 86.4167 38.4376C86.4167 37.0223 85.2788 35.875 83.875 35.875C82.4712 35.875 81.3333 37.0223 81.3333 38.4376C81.3333 39.8529 82.4712 41.0002 83.875 41.0002Z" fill="#FFC107"/>
</g>
<defs>
<clipPath id="clip0">
<rect width="122" height="123" fill="white"/>
</clipPath>
</defs>
</svg>
