<svg width="122" height="122" viewBox="0 0 122 122" fill="none" xmlns="http://www.w3.org/2000/svg">
<path d="M19.8677 59.4641C19.6544 59.8067 20.0304 60.2154 20.3659 60.0052L28.8966 54.6606C29.081 54.545 29.1356 54.2872 29.0091 54.1056C26.3737 50.3265 21.5683 47.7468 15.6408 47.7468C7.00213 47.7471 0 53.6805 0 61C0 68.3455 7.03001 74.2532 15.6408 74.2532C21.0128 74.2532 25.8228 72.0823 28.5718 68.4671C28.7381 68.2483 28.6061 68.0148 28.4906 67.6221C28.4034 67.3257 28.0352 67.2513 27.8513 67.4944C26.7959 68.8886 23.7945 72.2085 19.1404 72.2085C15.1535 72.2085 11.5709 69.9606 9.61727 66.6096C4.12298 57.219 13.1002 45.1736 23.5389 51.779C23.7161 51.8913 23.7671 52.1362 23.6539 52.318L19.8677 59.4641Z" fill="#E85454"/>
<path d="M29.635 67.124C29.635 70.8236 33.3136 73.8224 37.8517 73.8224C41.6444 73.8224 44.8371 71.7274 45.7833 68.879L47.0329 73.251C47.1299 73.59 47.4279 73.8224 47.7663 73.8224H53.537C53.9585 73.8224 54.2614 73.398 54.1413 72.975C53.5992 71.065 49.8177 57.7384 49.2813 55.8483C49.2813 55.8483 47.3529 50.355 41.2684 52.6711C38.1493 53.8584 36.2685 54.6634 35.1762 55.1659C34.8386 55.3212 34.9468 55.8483 35.3156 55.8483H41.3787C41.7819 55.8483 42.1374 56.1252 42.253 56.5293L44.0155 62.6949C42.5098 61.3033 40.3064 60.4257 37.8514 60.4257C33.3367 60.4257 29.635 63.4037 29.635 67.124ZM41.1156 62.9403C43.3845 62.9403 45.2369 64.8616 45.2369 67.2522C45.2369 69.7118 43.2685 71.6907 40.8897 71.558C38.5458 71.4271 36.6712 69.1711 37.0398 66.6058C37.3382 64.5311 39.0493 62.9403 41.1156 62.9403Z" fill="#E85454"/>
<path d="M67.9132 73.0657C67.9132 73.4836 68.237 73.8225 68.6364 73.8225H74.6577C75.0161 73.8225 75.3068 73.5184 75.3068 73.1434C75.3068 71.1961 75.3068 57.7297 75.3068 55.8765C75.2508 53.7902 73.6174 52.1167 71.6099 52.1167C69.7937 52.1167 67.2072 53.8037 64.5511 55.3366C64.2959 55.4839 63.9689 55.3449 63.9008 55.0485C63.5136 53.3646 62.1842 52.1169 60.4512 52.1169C58.9305 52.1169 55.2764 54.1871 53.5105 55.2437C53.2348 55.4086 53.3473 55.8484 53.6652 55.8484H56.2829C56.5434 55.8484 56.7545 56.0693 56.7545 56.3417C56.7545 57.9698 56.7545 71.0529 56.7545 73.3306C56.7545 73.6021 56.9649 73.8222 57.2244 73.8222H63.4268C63.7495 73.8222 64.0109 73.5487 64.0109 73.2113C64.0109 73.2044 64.0104 57.1992 64.0116 57.1923C64.8153 55.0404 67.9132 55.6032 67.9132 58.0575C67.9132 62.9861 67.9132 68.733 67.9132 73.0657Z" fill="#E85454"/>
<path d="M88.3482 74.2532C94.2285 74.2532 98.9962 69.2664 98.9962 63.113C98.9962 56.9604 94.2292 51.9731 88.3482 51.9731C81.0837 51.9731 75.9673 59.424 78.2336 66.6034C79.634 71.0471 83.633 74.2532 88.3482 74.2532ZM86.4653 53.0904C87.8654 53.0904 89.0189 54.1968 89.17 55.6198C93.3969 70.7345 93.1345 69.7025 93.1345 70.0599C93.1345 71.6323 91.9162 72.9069 90.4131 72.9069C88.9429 72.9069 87.7451 71.6866 87.7253 70.1619C86.4178 65.6386 86.806 66.9813 83.588 55.8486C83.7567 54.4458 85.0787 53.0904 86.4653 53.0904Z" fill="#E85454"/>
<path d="M114.606 73.0657C114.606 73.4836 114.93 73.8225 115.329 73.8225H121.351C121.709 73.8225 122 73.5184 122 73.1434C122 71.1961 122 57.7297 122 55.8765C121.944 53.7902 120.311 52.1167 118.303 52.1167C116.487 52.1167 113.9 53.8037 111.244 55.3366C110.989 55.4839 110.662 55.3449 110.594 55.0485C110.207 53.3646 108.877 52.1169 107.144 52.1169C105.624 52.1169 101.97 54.1871 100.204 55.2437C99.928 55.4086 100.04 55.8484 100.358 55.8484H102.976C103.236 55.8484 103.448 56.0693 103.448 56.3417C103.448 57.9698 103.448 71.0529 103.448 73.3306C103.448 73.6021 103.658 73.8222 103.917 73.8222H110.12C110.443 73.8222 110.704 73.5487 110.704 73.2113C110.704 73.2044 110.703 57.199 110.705 57.1923C111.508 55.0404 114.606 55.6032 114.606 58.0575C114.606 62.9861 114.606 68.733 114.606 73.0657Z" fill="#E85454"/>
<path d="M61.1735 73.2502C61.1735 70.5982 61.1735 55.3656 61.1735 53.4696C61.1735 53.1524 60.9624 52.8951 60.702 52.8951H58.0842C58.0406 52.8951 58.0018 52.8839 57.9665 52.8667C56.3896 53.5658 54.5948 54.595 53.5109 55.2436C53.235 55.4087 53.3477 55.8483 53.6655 55.8483H56.2833C56.5437 55.8483 56.7548 56.0692 56.7548 56.3416C56.7548 57.9697 56.7548 71.0528 56.7548 73.3305C56.7548 73.6019 56.9652 73.8221 57.2247 73.8221H61.6434C61.3837 73.8226 61.1735 73.5662 61.1735 73.2502Z" fill="#D84848"/>
<path d="M107.867 73.2502C107.867 70.5982 107.867 55.3656 107.867 53.4696C107.867 53.1524 107.655 52.8951 107.395 52.8951H104.777C104.734 52.8951 104.695 52.8839 104.659 52.8667C103.082 53.5658 101.288 54.595 100.204 55.2436C99.928 55.4087 100.041 55.8483 100.358 55.8483H102.976C103.237 55.8483 103.448 56.0692 103.448 56.3416C103.448 57.9697 103.448 71.0528 103.448 73.3305C103.448 73.6019 103.658 73.8221 103.918 73.8221H108.336C108.077 73.8226 107.867 73.5662 107.867 73.2502Z" fill="#D84848"/>
<path d="M4.90979 61C4.90979 54.378 10.6414 48.8911 18.1308 47.9055C17.3259 47.8024 16.4955 47.7471 15.6408 47.7471C7.00213 47.7471 0 53.6805 0 61C0 68.3455 7.03001 74.2532 15.6408 74.2532C16.4798 74.2532 17.3028 74.1941 18.1087 74.0912C10.6497 73.0988 4.90979 67.6369 4.90979 61Z" fill="#D84848"/>
<path d="M40.3052 60.732C39.5301 60.5344 38.7069 60.4258 37.8519 60.4258C33.342 60.4258 29.6353 63.4 29.6353 67.1241C29.6353 70.8237 33.3138 73.8224 37.8519 73.8224C38.7042 73.8224 39.5234 73.7116 40.2962 73.5153C32.6748 71.5635 32.5883 62.7004 40.3052 60.732Z" fill="#D84848"/>
<path d="M35.3159 55.8484H40.2256C39.8568 55.8484 39.7484 55.3213 40.0863 55.1659C41.1785 54.6634 43.0593 53.8585 46.1784 52.6711C46.242 52.6468 46.3025 52.6285 46.3652 52.6061C45.1445 52.0216 43.483 51.8283 41.2688 52.6711C38.1497 53.8585 36.269 54.6634 35.1767 55.1659C34.8388 55.3213 34.947 55.8484 35.3159 55.8484Z" fill="#D84848"/>
<path d="M83.1435 66.6034C82.1301 63.3935 82.5959 60.1314 84.0661 57.5032C83.916 56.9837 83.757 56.4342 83.5879 55.8483C83.7566 54.4455 85.0785 53.0902 86.4651 53.0902C86.9798 53.0902 87.4604 53.2408 87.871 53.5003C88.7648 52.9491 89.7467 52.5305 90.7971 52.2722C90.0105 52.0785 89.1913 51.9727 88.3482 51.9727C81.0838 51.9727 75.9671 59.4235 78.2337 66.6029C79.6338 71.0464 83.6331 74.2524 88.3482 74.2524C89.1922 74.2524 90.0124 74.1466 90.7997 73.9524C87.1916 73.0605 84.2925 70.2493 83.1435 66.6034Z" fill="#D84848"/>
</svg>
