<svg width="134" height="134" viewBox="0 0 134 134" fill="none" xmlns="http://www.w3.org/2000/svg">
<circle cx="67" cy="67" r="67" fill="#C03546"/>
<path d="M59.0651 49.3372H32.6223C31.1764 49.3372 30 50.5148 30 51.9621V90.3626C30 91.8099 31.1764 92.9876 32.6223 92.9876H59.0651C60.511 92.9876 61.6874 91.8099 61.6874 90.3626V51.9621C61.6873 50.5148 60.5109 49.3372 59.0651 49.3372ZM59.5531 90.3626C59.5531 90.632 59.3341 90.8511 59.065 90.8511H32.6223C32.3532 90.8511 32.1342 90.632 32.1342 90.3626V51.9621C32.1342 51.6927 32.3532 51.4736 32.6223 51.4736H59.0651C59.3342 51.4736 59.5532 51.6927 59.5532 51.9621V90.3626H59.5531Z" fill="#F1F0F0"/>
<path d="M82.2681 56.9905H66.8819C65.436 56.9905 64.2596 58.1681 64.2596 59.6156V90.0931C64.2596 91.5405 65.436 92.7182 66.8819 92.7182H82.2682C83.7141 92.7182 84.8905 91.5405 84.8905 90.0931V59.6154C84.8902 58.168 83.7138 56.9905 82.2681 56.9905ZM82.7562 90.0931C82.756 90.3626 82.537 90.5817 82.2679 90.5817H66.8819C66.6128 90.5817 66.3938 90.3626 66.3938 90.0931V59.6154C66.3938 59.3459 66.6128 59.1268 66.8819 59.1268H82.2682C82.5373 59.1268 82.7563 59.3459 82.7563 59.6154V90.0931H82.7562Z" fill="#F1F0F0"/>
<path d="M100.235 67.2456H89.5044C88.0585 67.2456 86.8821 68.4232 86.8821 69.8707V90.4049C86.8821 91.8523 88.0585 93.0299 89.5044 93.0299H100.235C101.681 93.0299 102.857 91.8523 102.857 90.4049V69.8705C102.857 68.4231 101.681 67.2456 100.235 67.2456ZM100.723 90.4047C100.723 90.6742 100.504 90.8933 100.235 90.8933H89.5043C89.2352 90.8933 89.0162 90.6742 89.0162 90.4047V69.8704C89.0162 69.6009 89.2352 69.3818 89.5043 69.3818H100.235C100.504 69.3818 100.723 69.6009 100.723 69.8704V90.4047Z" fill="#F1F0F0"/>
<path d="M51.9523 48.5869C52.5416 48.5869 53.0194 48.1087 53.0194 47.5187V44.5986C53.0194 44.3631 53.2108 44.1714 53.4461 44.1714H68.5281C68.7635 44.1714 68.9549 44.3631 68.9549 44.5986V50.9219L67.7886 49.7543C67.3718 49.3372 66.6962 49.3372 66.2795 49.7543C65.8627 50.1717 65.8627 50.8479 66.2795 51.2652L69.2674 54.2562C69.2738 54.2626 69.2803 54.269 69.2869 54.2753C69.4926 54.4712 69.7573 54.5692 70.0218 54.5692H70.022C70.0252 54.5692 70.0287 54.5692 70.0319 54.569C70.0372 54.569 70.0423 54.569 70.0476 54.5689C70.0527 54.5688 70.058 54.5686 70.0631 54.5683C70.0664 54.5682 70.0698 54.5682 70.0731 54.5679C70.0763 54.5678 70.0796 54.5675 70.083 54.5673C70.0884 54.567 70.0938 54.5668 70.0992 54.5663C70.0999 54.5663 70.1008 54.5662 70.1015 54.5662C70.1093 54.5656 70.1172 54.5649 70.125 54.5642C70.1253 54.5642 70.1257 54.5642 70.126 54.5641C70.3252 54.5445 70.5199 54.4692 70.6848 54.338C70.6856 54.3373 70.6864 54.3367 70.6872 54.3361C70.6915 54.3327 70.6958 54.3292 70.7 54.3257C70.7023 54.3237 70.7047 54.3219 70.707 54.3199C70.7118 54.3158 70.7167 54.3116 70.7215 54.3075C70.7256 54.3039 70.7296 54.3004 70.7336 54.2968C70.7357 54.295 70.7377 54.2931 70.7399 54.2911C70.7446 54.2868 70.7493 54.2824 70.754 54.278C70.7551 54.2769 70.7564 54.2759 70.7575 54.2747C70.7635 54.269 70.7693 54.2633 70.7752 54.2575C70.7756 54.2572 70.7759 54.2568 70.7763 54.2565L73.6218 51.4079C74.0386 50.9905 74.0386 50.3143 73.6218 49.8971C73.205 49.48 72.5294 49.48 72.1128 49.8971L71.0888 50.9222V44.5986C71.0888 43.1849 69.94 42.0349 68.5278 42.0349H53.4461C52.034 42.0349 50.8852 43.1849 50.8852 44.5986V47.5186C50.8852 48.1086 51.363 48.5869 51.9523 48.5869Z" fill="#F1F0F0"/>
<path d="M77.8474 55.851C78.4367 55.851 78.9145 55.3728 78.9145 54.7828V51.8628C78.9145 51.6274 79.1059 51.4356 79.3413 51.4356H92.0046C92.2399 51.4356 92.4313 51.6274 92.4313 51.8628V61.8894L91.2651 60.7219C90.8483 60.3048 90.1726 60.3048 89.756 60.7219C89.3392 61.1392 89.3392 61.8154 89.756 62.2327L92.7438 65.2237C92.7502 65.2301 92.7568 65.2366 92.7633 65.2428C92.9691 65.4387 93.2338 65.5367 93.4983 65.5367H93.4984C93.5017 65.5367 93.5051 65.5367 93.5084 65.5366C93.5137 65.5366 93.5188 65.5366 93.524 65.5364C93.5292 65.5363 93.5344 65.5361 93.5396 65.5358C93.5428 65.5357 93.5463 65.5357 93.5495 65.5354C93.5528 65.5353 93.5561 65.535 93.5595 65.5348C93.5649 65.5346 93.5703 65.5343 93.5757 65.5338C93.5764 65.5338 93.5773 65.5337 93.578 65.5337C93.5858 65.5331 93.5936 65.5324 93.6015 65.5317C93.6017 65.5317 93.6022 65.5317 93.6025 65.5316C93.8017 65.512 93.9963 65.4367 94.1613 65.3055C94.1621 65.3048 94.1628 65.3042 94.1637 65.3036C94.168 65.3002 94.1722 65.2967 94.1765 65.2932C94.1788 65.2913 94.1812 65.2894 94.1835 65.2874C94.1883 65.2833 94.1931 65.2791 94.198 65.275C94.2021 65.2715 94.2061 65.2679 94.2101 65.2643C94.2122 65.2625 94.2142 65.2606 94.2163 65.2586C94.221 65.2544 94.2257 65.2499 94.2304 65.2455C94.2316 65.2444 94.2328 65.2434 94.234 65.2422C94.24 65.2366 94.2458 65.2309 94.2516 65.225C94.2521 65.2247 94.2523 65.2243 94.2528 65.224L97.0983 62.3754C97.5151 61.958 97.5151 61.2818 97.0983 60.8646C96.6815 60.4475 96.0059 60.4475 95.5892 60.8646L94.5653 61.8897V51.8633C94.5653 50.4496 93.4165 49.2996 92.0043 49.2996H79.341C77.9288 49.2996 76.78 50.4496 76.78 51.8633V54.7832C76.7803 55.3728 77.258 55.851 77.8474 55.851Z" fill="#F1F0F0"/>
<path d="M56.9322 52.7173H34.7364C34.1472 52.7173 33.6693 53.1955 33.6693 53.7855V64.8953C33.6693 65.4855 34.1472 65.9635 34.7364 65.9635H47.6483C48.2376 65.9635 48.7154 65.4853 48.7154 64.8953C48.7154 64.3053 48.2376 63.827 47.6483 63.827H35.8035V54.8538H55.8651V63.827H51.9169C51.3276 63.827 50.8498 64.3053 50.8498 64.8953C50.8498 65.4855 51.3276 65.9635 51.9169 65.9635H56.9322C57.5214 65.9635 57.9993 65.4853 57.9993 64.8953V53.7855C57.9993 53.1955 57.5214 52.7173 56.9322 52.7173Z" fill="#F1F0F0"/>
<path d="M56.9322 81.9163H34.7364C34.1472 81.9163 33.6693 82.3945 33.6693 82.9845V88.3969C33.6693 88.987 34.1472 89.4652 34.7364 89.4652H56.9322C57.5214 89.4652 57.9993 88.987 57.9993 88.3969V82.9845C57.9993 82.3943 57.5214 81.9163 56.9322 81.9163ZM55.8651 87.3287H35.8035V84.0527H55.8651V87.3287Z" fill="#F1F0F0"/>
<path d="M34.7364 80.4918H47.1148C47.7041 80.4918 48.1819 80.0136 48.1819 79.4236V68.3138C48.1819 67.7238 47.7041 67.2456 47.1148 67.2456H34.7364C34.1472 67.2456 33.6693 67.7238 33.6693 68.3138V79.4236C33.6693 80.0135 34.147 80.4918 34.7364 80.4918ZM35.8035 69.3821H46.0477V78.3554H35.8035V69.3821Z" fill="#F1F0F0"/>
<path d="M56.9322 67.2456H50.3873C49.798 67.2456 49.3202 67.7238 49.3202 68.3138V79.4236C49.3202 80.0136 49.798 80.4918 50.3873 80.4918H56.9322C57.5214 80.4918 57.9993 80.0136 57.9993 79.4236V68.3138C57.9993 67.7237 57.5214 67.2456 56.9322 67.2456ZM55.8651 78.3554H51.4544V69.3821H55.8651V78.3554V78.3554Z" fill="#F1F0F0"/>
<path d="M79.7589 60.5513H69.391C68.4444 60.5513 67.6744 61.3221 67.6744 62.2697V65.5269C67.6744 66.4745 68.4446 67.2453 69.391 67.2453H79.7589C80.7054 67.2453 81.4754 66.4745 81.4754 65.5269V62.2697C81.4754 61.3221 80.7053 60.5513 79.7589 60.5513ZM79.3412 65.1091H69.8085V62.6877H79.3412V65.1091Z" fill="#F1F0F0"/>
<path d="M79.627 68.5276H69.5227C68.5034 68.5276 67.6742 69.3577 67.6742 70.3779V73.299C67.6742 73.8892 68.152 74.3672 68.7413 74.3672C69.3306 74.3672 69.8084 73.889 69.8084 73.299V70.6639H79.3411V87.3286H69.8084V77.5719C69.8084 76.9819 69.3306 76.5037 68.7413 76.5037C68.152 76.5037 67.6742 76.9819 67.6742 77.5719V87.6147C67.6742 88.635 68.5034 89.465 69.5227 89.465H79.627C80.6463 89.465 81.4755 88.635 81.4755 87.6147V70.3779C81.4755 69.3577 80.6463 68.5276 79.627 68.5276Z" fill="#F1F0F0"/>
<path d="M97.2783 70.8064H92.5635C91.3921 70.8064 90.439 71.7604 90.439 72.9332V77.2257C90.439 78.3983 91.392 79.3525 92.5635 79.3525H97.2783C98.4497 79.3525 99.4029 78.3985 99.4029 77.2257V72.9332C99.4029 71.7604 98.4499 70.8064 97.2783 70.8064ZM97.2687 77.2158H92.5734V72.9429H97.2687V77.2158Z" fill="#F1F0F0"/>
<path d="M97.2783 81.0615H92.5635C91.3921 81.0615 90.439 82.0155 90.439 83.1883V87.3383C90.439 88.511 91.392 89.4651 92.5635 89.4651H97.2783C98.4497 89.4651 99.4029 88.5111 99.4029 87.3383V83.1883C99.4029 82.0155 98.4499 81.0615 97.2783 81.0615ZM97.2687 87.3287H92.5734V83.1981H97.2687V87.3287Z" fill="#F1F0F0"/>
</svg>
