<svg width="50" height="50" viewBox="0 0 50 50" fill="none" xmlns="http://www.w3.org/2000/svg">
<path d="M25 0C38.7812 0 50 11.2146 50 25C50 38.7812 38.7812 50 25 50C11.2146 50 0 38.7812 0 25C0 11.2146 11.2146 0 25 0Z" fill="#C2185B"/>
<path d="M38.6707 8.50194V8.49985C33.5895 4.28318 26.9603 2.70818 20.6207 4.02068C23.2207 7.7061 25.5832 11.5415 27.6603 15.5186C31.5936 13.6853 35.2936 11.3207 38.6707 8.50194Z" fill="#EC407A"/>
<path d="M31.823 24.6479V24.6459C36.5667 23.6729 41.5021 23.5813 46.3938 24.3938C46.25 19.2875 44.3292 14.6292 41.2146 11.0229C37.5376 14.1209 33.4959 16.6875 29.2021 18.6938C30.1438 20.65 31.0146 22.6334 31.823 24.6479Z" fill="#EC407A"/>
<path d="M24.3291 16.8688C22.1812 12.7959 19.7499 8.8667 17.0354 5.1167C10.602 7.69587 5.72703 13.2959 4.13745 20.1688C11.0729 20.4646 17.9374 19.3104 24.3291 16.8688Z" fill="#EC407A"/>
<path d="M28.3437 25.5353C27.5979 23.6998 26.7916 21.8915 25.9291 20.104C18.9291 22.8311 11.5541 24.1478 3.63538 23.7207C3.3083 29.5748 5.20413 34.7519 8.62079 38.804C13.7666 32.4144 20.6854 27.8353 28.3437 25.5353Z" fill="#EC407A"/>
<path d="M33.1354 28.027V28.0291C34.8375 32.7791 36.1729 37.6624 37.1541 42.6395C41.9833 39.3083 45.3541 34.0458 46.2 27.9687C41.8208 27.1937 37.3958 27.227 33.1354 28.027Z" fill="#EC407A"/>
<path d="M11.1542 41.3435H11.1563C17.5 46.7247 26.3125 47.9455 33.8792 44.483C32.8979 39.1476 31.4688 33.9268 29.625 28.856C22.4271 30.9601 15.9229 35.281 11.1542 41.3435Z" fill="#EC407A"/>
</svg>
