<svg width="50" height="50" viewBox="0 0 50 50" fill="none" xmlns="http://www.w3.org/2000/svg">
<path d="M24.9969 0.520508C11.1938 0.520508 0 11.758 0 25.6205C0 36.708 7.1625 46.1143 17.1 49.4362C18.35 49.6674 18.8062 48.8924 18.8062 48.2268C18.8062 47.6299 18.7844 46.0518 18.7719 43.958C11.8188 45.4737 10.35 40.5924 10.35 40.5924C9.21562 37.6924 7.575 36.9205 7.575 36.9205C5.30312 35.3643 7.74375 35.3955 7.74375 35.3955C10.2531 35.5737 11.5719 37.983 11.5719 37.983C13.8031 41.8174 17.425 40.7112 18.85 40.0674C19.075 38.4455 19.7219 37.3393 20.4375 36.7112C14.8875 36.0768 9.05 33.9237 9.05 24.308C9.05 21.5674 10.025 19.3268 11.625 17.5705C11.3656 16.9361 10.5094 14.383 11.8688 10.9299C11.8688 10.9299 13.9688 10.2549 18.7437 13.5018C20.7375 12.9455 22.875 12.6674 25.0031 12.658C27.125 12.6705 29.2656 12.9455 31.2625 13.5049C36.0344 10.258 38.1312 10.933 38.1312 10.933C39.4937 14.3893 38.6375 16.9393 38.3812 17.5736C39.9844 19.3299 40.95 21.5705 40.95 24.3111C40.95 33.9518 35.1062 36.0737 29.5375 36.6955C30.4344 37.4705 31.2344 39.0018 31.2344 41.3424C31.2344 44.6987 31.2031 47.4049 31.2031 48.2268C31.2031 48.8987 31.6531 49.6799 32.9219 49.433C42.8438 46.108 50 36.7049 50 25.6205C50 11.758 38.8063 0.520508 24.9969 0.520508Z" fill="#5C6BC0"/>
</svg>
