<svg width="142" height="142" viewBox="0 0 142 142" fill="none" xmlns="http://www.w3.org/2000/svg">
<g clip-path="url(#clip0)">
<path d="M130.158 21.8114C130.158 24.3086 129.233 26.5862 127.714 28.3345C136.678 40.2215 142 55 142 71.0006C142 110.149 110.15 142.001 71 142.001C31.8507 142.001 0 110.149 0 71.0006C0 31.8502 31.8502 0 71 0C87 0 101.778 5.32167 113.665 14.2865C115.415 12.7678 117.69 11.8431 120.189 11.8431C125.693 11.8431 130.158 16.305 130.158 21.8109V21.8114ZM71 139.612C108.833 139.612 139.612 108.832 139.61 70.9989C139.61 55.6141 134.521 41.3997 125.938 29.9431C124.259 31.1373 122.249 31.7785 120.188 31.7775C114.683 31.7775 110.22 27.3156 110.22 21.8103C110.22 19.6664 110.903 17.6851 112.054 16.0593C100.598 7.47663 86.3831 2.38737 71 2.38737C33.1681 2.38737 2.38793 33.1675 2.38793 70.9994C2.38793 108.832 33.1681 139.612 71 139.612ZM71.0011 99.988C54.9912 99.988 42.0126 87.0094 42.0126 71C42.0126 54.9895 54.9912 42.0109 71.0006 42.0109C87.0111 42.0109 99.9896 54.9895 99.9896 70.9994C99.9896 87.0094 87.0111 99.988 71.0011 99.988Z" fill="#4E8EF7"/>
</g>
<defs>
<clipPath id="clip0">
<rect width="142" height="142" fill="white"/>
</clipPath>
</defs>
</svg>
