<svg width="297" height="114" viewBox="0 0 297 114" fill="none" xmlns="http://www.w3.org/2000/svg">
<rect x="15.5" y="14.5" width="97" height="97" rx="8.5" stroke="#464646" stroke-width="3"/>
<rect x="1" y="1" width="43" height="43" rx="9" stroke="#464646" stroke-width="2"/>
<rect x="1" y="57" width="43" height="43" rx="9" stroke="#464646" stroke-width="2"/>
<rect x="59" y="57" width="43" height="43" rx="9" stroke="#464646" stroke-width="2"/>
<rect x="59" y="1" width="43" height="43" rx="9" stroke="#464646" stroke-width="2"/>
<path d="M129.73 38.4961H123.051V50H119.281V21.5625H128.695C131.898 21.5625 134.359 22.2917 136.078 23.75C137.81 25.2083 138.676 27.3307 138.676 30.1172C138.676 31.888 138.194 33.431 137.23 34.7461C136.28 36.0612 134.952 37.0443 133.246 37.6953L139.926 49.7656V50H135.902L129.73 38.4961ZM123.051 35.4297H128.812C130.674 35.4297 132.152 34.9479 133.246 33.9844C134.353 33.0208 134.906 31.7318 134.906 30.1172C134.906 28.3594 134.379 27.0117 133.324 26.0742C132.283 25.1367 130.772 24.6615 128.793 24.6484H123.051V35.4297ZM142.426 39.2383C142.426 37.168 142.829 35.306 143.637 33.6523C144.457 31.9987 145.59 30.7227 147.035 29.8242C148.493 28.9258 150.154 28.4766 152.016 28.4766C154.893 28.4766 157.217 29.4727 158.988 31.4648C160.772 33.457 161.664 36.1068 161.664 39.4141V39.668C161.664 41.7253 161.267 43.5742 160.473 45.2148C159.691 46.8424 158.565 48.112 157.094 49.0234C155.635 49.9349 153.956 50.3906 152.055 50.3906C149.19 50.3906 146.866 49.3945 145.082 47.4023C143.311 45.4102 142.426 42.7734 142.426 39.4922V39.2383ZM146.059 39.668C146.059 42.0117 146.599 43.8932 147.68 45.3125C148.773 46.7318 150.232 47.4414 152.055 47.4414C153.891 47.4414 155.349 46.7253 156.43 45.293C157.51 43.8477 158.051 41.8294 158.051 39.2383C158.051 36.9206 157.497 35.0456 156.391 33.6133C155.297 32.168 153.839 31.4453 152.016 31.4453C150.232 31.4453 148.793 32.1549 147.699 33.5742C146.605 34.9935 146.059 37.0247 146.059 39.668ZM165.316 39.2578C165.316 36.0156 166.085 33.4115 167.621 31.4453C169.158 29.4661 171.169 28.4766 173.656 28.4766C176.13 28.4766 178.09 29.3229 179.535 31.0156V20H183.148V50H179.828L179.652 47.7344C178.207 49.5052 176.195 50.3906 173.617 50.3906C171.169 50.3906 169.171 49.388 167.621 47.3828C166.085 45.3776 165.316 42.7604 165.316 39.5312V39.2578ZM168.93 39.668C168.93 42.0638 169.424 43.9388 170.414 45.293C171.404 46.6471 172.771 47.3242 174.516 47.3242C176.807 47.3242 178.48 46.2956 179.535 44.2383V34.5312C178.454 32.5391 176.794 31.543 174.555 31.543C172.784 31.543 171.404 32.2266 170.414 33.5938C169.424 34.9609 168.93 36.9857 168.93 39.668ZM198.988 32.1094C198.441 32.0182 197.849 31.9727 197.211 31.9727C194.841 31.9727 193.233 32.9818 192.387 35V50H188.773V28.8672H192.289L192.348 31.3086C193.533 29.4206 195.212 28.4766 197.387 28.4766C198.09 28.4766 198.624 28.5677 198.988 28.75V32.1094ZM206.254 50H202.641V28.8672H206.254V50ZM202.348 23.2617C202.348 22.6758 202.523 22.181 202.875 21.7773C203.24 21.3737 203.773 21.1719 204.477 21.1719C205.18 21.1719 205.714 21.3737 206.078 21.7773C206.443 22.181 206.625 22.6758 206.625 23.2617C206.625 23.8477 206.443 24.3359 206.078 24.7266C205.714 25.1172 205.18 25.3125 204.477 25.3125C203.773 25.3125 203.24 25.1172 202.875 24.7266C202.523 24.3359 202.348 23.8477 202.348 23.2617ZM211.195 39.2578C211.195 35.9635 211.957 33.3464 213.48 31.4062C215.004 29.4531 217.022 28.4766 219.535 28.4766C222.113 28.4766 224.125 29.388 225.57 31.2109L225.746 28.8672H229.047V49.4922C229.047 52.2266 228.233 54.3815 226.605 55.957C224.991 57.5326 222.816 58.3203 220.082 58.3203C218.559 58.3203 217.068 57.9948 215.609 57.3438C214.151 56.6927 213.038 55.8008 212.27 54.668L214.145 52.5C215.694 54.4141 217.589 55.3711 219.828 55.3711C221.586 55.3711 222.953 54.8763 223.93 53.8867C224.919 52.8971 225.414 51.5039 225.414 49.707V47.8906C223.969 49.5573 221.996 50.3906 219.496 50.3906C217.022 50.3906 215.017 49.3945 213.48 47.4023C211.957 45.4102 211.195 42.6953 211.195 39.2578ZM214.828 39.668C214.828 42.0508 215.316 43.9258 216.293 45.293C217.27 46.6471 218.637 47.3242 220.395 47.3242C222.673 47.3242 224.346 46.2891 225.414 44.2188V34.5703C224.307 32.5521 222.647 31.543 220.434 31.543C218.676 31.543 217.302 32.2266 216.312 33.5938C215.323 34.9609 214.828 36.9857 214.828 39.668ZM233.559 39.2383C233.559 37.168 233.962 35.306 234.77 33.6523C235.59 31.9987 236.723 30.7227 238.168 29.8242C239.626 28.9258 241.286 28.4766 243.148 28.4766C246.026 28.4766 248.35 29.4727 250.121 31.4648C251.905 33.457 252.797 36.1068 252.797 39.4141V39.668C252.797 41.7253 252.4 43.5742 251.605 45.2148C250.824 46.8424 249.698 48.112 248.227 49.0234C246.768 49.9349 245.089 50.3906 243.188 50.3906C240.323 50.3906 237.999 49.3945 236.215 47.4023C234.444 45.4102 233.559 42.7734 233.559 39.4922V39.2383ZM237.191 39.668C237.191 42.0117 237.732 43.8932 238.812 45.3125C239.906 46.7318 241.365 47.4414 243.188 47.4414C245.023 47.4414 246.482 46.7253 247.562 45.293C248.643 43.8477 249.184 41.8294 249.184 39.2383C249.184 36.9206 248.63 35.0456 247.523 33.6133C246.43 32.168 244.971 31.4453 243.148 31.4453C241.365 31.4453 239.926 32.1549 238.832 33.5742C237.738 34.9935 237.191 37.0247 237.191 39.668ZM135.004 89.5781H123.09L120.414 97H116.547L127.406 68.5625H130.688L141.566 97H137.719L135.004 89.5781ZM124.223 86.4922H133.891L129.047 73.1914L124.223 86.4922ZM157.954 97H154.341V67H157.954V97ZM186.002 97C185.793 96.5833 185.624 95.8411 185.494 94.7734C183.814 96.5182 181.809 97.3906 179.478 97.3906C177.395 97.3906 175.683 96.8047 174.341 95.6328C173.013 94.4479 172.349 92.9505 172.349 91.1406C172.349 88.9401 173.183 87.2344 174.849 86.0234C176.529 84.7995 178.886 84.1875 181.92 84.1875H185.435V82.5273C185.435 81.2643 185.058 80.2617 184.302 79.5195C183.547 78.7643 182.434 78.3867 180.963 78.3867C179.673 78.3867 178.593 78.7122 177.72 79.3633C176.848 80.0143 176.412 80.8021 176.412 81.7266H172.779C172.779 80.6719 173.15 79.6562 173.892 78.6797C174.647 77.6901 175.663 76.9089 176.939 76.3359C178.228 75.763 179.641 75.4766 181.177 75.4766C183.612 75.4766 185.52 76.0885 186.9 77.3125C188.28 78.5234 188.996 80.1966 189.048 82.332V92.0586C189.048 93.9987 189.296 95.5417 189.791 96.6875V97H186.002ZM180.005 94.2461C181.138 94.2461 182.213 93.9531 183.228 93.3672C184.244 92.7812 184.979 92.0195 185.435 91.082V86.7461H182.603C178.176 86.7461 175.963 88.0417 175.963 90.6328C175.963 91.7656 176.34 92.651 177.095 93.2891C177.851 93.9271 178.821 94.2461 180.005 94.2461ZM207.33 75.8672L207.448 78.5234C209.062 76.4922 211.172 75.4766 213.776 75.4766C218.242 75.4766 220.495 77.9961 220.534 83.0352V97H216.92V83.0156C216.907 81.4922 216.556 80.3659 215.866 79.6367C215.189 78.9076 214.127 78.543 212.682 78.543C211.51 78.543 210.482 78.8555 209.596 79.4805C208.711 80.1055 208.021 80.9258 207.526 81.9414V97H203.912V75.8672H207.33ZM234.226 86.2383C234.226 84.168 234.629 82.306 235.437 80.6523C236.257 78.9987 237.39 77.7227 238.835 76.8242C240.293 75.9258 241.954 75.4766 243.816 75.4766C246.693 75.4766 249.017 76.4727 250.788 78.4648C252.572 80.457 253.464 83.1068 253.464 86.4141V86.668C253.464 88.7253 253.067 90.5742 252.273 92.2148C251.491 93.8424 250.365 95.112 248.894 96.0234C247.435 96.9349 245.756 97.3906 243.855 97.3906C240.99 97.3906 238.666 96.3945 236.882 94.4023C235.111 92.4102 234.226 89.7734 234.226 86.4922V86.2383ZM237.859 86.668C237.859 89.0117 238.399 90.8932 239.48 92.3125C240.573 93.7318 242.032 94.4414 243.855 94.4414C245.691 94.4414 247.149 93.7253 248.23 92.293C249.31 90.8477 249.851 88.8294 249.851 86.2383C249.851 83.9206 249.297 82.0456 248.191 80.6133C247.097 79.168 245.639 78.4453 243.816 78.4453C242.032 78.4453 240.593 79.1549 239.499 80.5742C238.405 81.9935 237.859 84.0247 237.859 86.668Z" fill="#373434"/>
</svg>
