<svg width="80" height="80" viewBox="0 0 80 80" fill="none" xmlns="http://www.w3.org/2000/svg">
<path d="M78.8883 66.5228L67.6092 77.7114C65.9441 79.419 63.7374 79.9975 61.5881 80C52.0833 79.7153 43.0992 75.0464 35.7226 70.2524C23.6145 61.4437 12.5048 50.5214 5.53211 37.3221C2.85783 31.7873 -0.280037 24.7251 0.0197621 18.5473C0.0464955 16.2232 0.672763 13.9424 2.30949 12.4444L13.5886 1.17099C15.9307 -0.821209 18.1957 -0.132409 19.6945 2.18812L28.7685 19.395C29.7237 21.4334 29.1758 23.6176 27.7509 25.0741L23.5953 29.2275C23.3388 29.5788 23.1754 29.9788 23.1713 30.4142C24.7648 36.5824 29.5923 42.2675 33.8568 46.1799C38.1212 50.0924 42.705 55.3932 48.6553 56.648C49.3907 56.8531 50.2915 56.9251 50.8177 56.436L55.6519 51.5198C57.3182 50.2568 59.7242 49.6396 61.5033 50.6723H61.5881L77.9553 60.3351C80.358 61.8412 80.6087 64.752 78.8883 66.5228Z" fill="#492540"/>
</svg>
