<svg width="123" height="122" viewBox="0 0 123 122" fill="none" xmlns="http://www.w3.org/2000/svg">
<g clip-path="url(#clip0)">
<path d="M2.56258 0H120.438C121.853 0 123 1.13803 123 2.54175V119.458C123 120.862 121.853 122 120.437 122H2.56258C1.14736 122 0 120.862 0 119.458V2.54175C0 1.13803 1.14736 0 2.56258 0Z" fill="#90CAF9"/>
<path d="M12.8125 10.1667H110.187C111.603 10.1667 112.75 11.3048 112.75 12.7085V109.292C112.75 110.695 111.603 111.833 110.187 111.833H12.8125C11.3972 111.833 10.2499 110.695 10.2499 109.292V12.7083C10.2501 11.3045 11.3972 10.1667 12.8125 10.1667Z" fill="#283593"/>
<path d="M38.4374 86.4166C37.0222 86.4166 35.8749 85.2786 35.8749 83.8749V38.1249C35.8633 36.8441 36.8142 35.7547 38.0939 35.5831C45.5919 34.5664 55.8009 34.4801 61.9098 39.7819C65.0792 42.5734 66.811 46.633 66.6249 50.8331C66.5708 55.9879 63.8232 60.7452 59.3679 63.3991C53.892 66.7784 47.354 68.0413 40.9998 66.9474V83.8749C41 85.2786 39.8527 86.4166 38.4374 86.4166ZM41 61.7421C46.3287 62.9083 51.9057 61.9809 56.5595 59.1546C59.5865 57.4552 61.4699 54.2832 61.4999 50.8331C61.6664 48.1105 60.5765 45.4604 58.5376 43.6301C53.3334 40.3428 47.0486 39.1805 40.9998 40.3869V61.7421H41Z" fill="#90CAF9"/>
<path d="M82.2151 86.5333C78.6906 86.5591 75.267 85.3655 72.5339 83.1581C71.5162 82.1754 71.4946 80.5608 72.4851 79.5515C73.4758 78.5421 75.1036 78.5207 76.1213 79.5031C78.5916 81.3174 81.7752 81.8814 84.7262 81.0281C85.3259 80.7738 87.1555 80.0113 87.1555 76.2651C87.1555 72.9051 85.3309 71.9543 80.8467 70.4446C76.9876 69.1331 71.7497 67.3843 71.7497 60.9998C71.492 57.041 73.7773 53.3505 77.4539 51.7888C82.1913 49.9738 87.5483 50.8474 91.4502 54.0713C92.4791 55.0357 92.525 56.6448 91.5527 57.6653C90.5805 58.6859 88.9582 58.7314 87.9293 57.7671C85.5161 55.9468 82.3407 55.4555 79.4834 56.4606C77.7059 57.244 76.6488 59.0833 76.8749 60.9998C76.8749 63.5058 78.4124 64.2583 82.456 65.6206C86.6123 67.0083 92.2499 68.9096 92.2499 76.2498C92.6437 80.2551 90.4073 84.0605 86.6995 85.6946C85.2764 86.2688 83.7514 86.5541 82.2151 86.5333Z" fill="#90CAF9"/>
</g>
<defs>
<clipPath id="clip0">
<rect width="123" height="122" fill="white"/>
</clipPath>
</defs>
</svg>
