<svg width="123" height="122" viewBox="0 0 123 122" fill="none" xmlns="http://www.w3.org/2000/svg">
<g clip-path="url(#clip0)">
<path d="M0.960938 47.4781L44.2281 29.0857L61.5 41.3467L18.2328 59.7391L0.960938 47.4781Z" fill="#BEE6FF"/>
<path d="M122.039 47.4781L78.7719 29.0857L61.5 41.3467L104.767 59.7391L122.039 47.4781Z" fill="#BEE6FF"/>
<path d="M61.5 41.3464L18.2328 59.7389L61.5 78.1313L104.767 59.7389L61.5 41.3464Z" fill="#96BEF0"/>
<path d="M49.9216 52.2056V63.6021C49.9216 65.1135 50.527 66.563 51.6044 67.6317C52.6819 68.7004 54.1433 69.3008 55.6671 69.3008H67.2454C68.7692 69.3008 70.2306 68.7004 71.3081 67.6317C72.3855 66.563 72.9909 65.1135 72.9909 63.6021V52.2056H49.9216Z" fill="#E678A0"/>
<path d="M76.6828 6.5995C72.4602 2.9585 67.0534 0.953369 61.4582 0.953369C55.863 0.953369 50.4563 2.9585 46.2336 6.5995C41.7578 10.5062 38.9876 15.985 38.5078 21.8794C38.028 27.7739 39.8762 33.6225 43.6621 38.1908C45.3291 40.1271 46.7429 42.2644 47.8701 44.552C49.0873 46.9328 49.7872 49.5405 49.9246 52.2065H72.9899C73.1286 49.5399 73.8302 46.9318 75.0492 44.551C76.1764 42.2635 77.5902 40.1262 79.2572 38.1899C83.0425 33.6213 84.89 27.7726 84.4096 21.8784C83.9293 15.9842 81.1588 10.5058 76.6828 6.5995Z" fill="#F0DC78"/>
<path d="M104.767 102.654L61.5 121.047V78.1315L104.767 59.739V102.654Z" fill="#B4AAF0"/>
<path d="M104.767 88.8741V59.739L61.5 78.1315L78.7719 99.9247L104.767 88.8741Z" fill="#A99BE0"/>
<path d="M18.2328 102.654L61.5 121.047V78.1315L18.2328 59.739V102.654Z" fill="#C8BEFF"/>
<path d="M18.2328 88.8741V59.739L61.5 78.1315L44.2281 99.9247L18.2328 88.8741Z" fill="#B4AAF0"/>
<path d="M122.039 72L78.7719 90.3934L61.5 78.1315L104.767 59.739L122.039 72Z" fill="#BEE6FF"/>
<path d="M0.960938 72L44.2281 90.3934L61.5 78.1315L18.2328 59.739L0.960938 72Z" fill="#D2FAFF"/>
<path d="M56.8567 63.6021V52.2056H49.9216V63.6021C49.9216 65.1135 50.527 66.563 51.6044 67.6317C52.6819 68.7004 54.1433 69.3008 55.6671 69.3008H62.6022C61.0784 69.3008 59.617 68.7004 58.5395 67.6317C57.462 66.563 56.8567 65.1135 56.8567 63.6021Z" fill="#FA8CB4"/>
<path d="M54.8022 44.5509C53.6751 42.2634 52.2612 40.1261 50.5943 38.1898C48.0094 35.0812 46.303 31.3477 45.6494 27.3708C44.9958 23.3938 45.4185 19.3161 46.8743 15.5542C48.3301 11.7924 50.7667 8.48141 53.9352 5.9596C57.1037 3.43779 60.8904 1.79562 64.9084 1.2009C60.309 0.493538 55.6015 1.18895 51.4096 3.19501C47.2176 5.20106 43.7391 8.42307 41.4349 12.4341C39.1307 16.4452 38.1096 21.056 38.5068 25.6557C38.904 30.2554 40.7008 34.6268 43.6592 38.1907C45.3261 40.1271 46.7399 42.2643 47.8672 44.5519C49.0844 46.9327 49.7843 49.5404 49.9216 52.2064H56.8567C56.7195 49.5401 56.0196 46.932 54.8022 44.5509Z" fill="#FFE885"/>
<path d="M33.7366 18.117C31.1517 18.1168 28.6727 17.0981 26.8449 15.2852C25.017 13.4722 23.9901 11.0134 23.9898 8.44946C23.9896 11.0135 22.9625 13.4725 21.1344 15.2855C19.3064 17.0985 16.8272 18.117 14.2421 18.117C15.5222 18.117 16.7897 18.3671 17.9724 18.853C19.155 19.3389 20.2296 20.051 21.1348 20.9488C22.0399 21.8467 22.7579 22.9125 23.2478 24.0855C23.7377 25.2586 23.9898 26.5158 23.9898 27.7855C23.9898 25.2214 25.0167 22.7624 26.8445 20.9492C28.6724 19.136 31.1515 18.1173 33.7366 18.117Z" fill="#FFE885"/>
<path d="M101.05 10.3013C99.4873 10.3013 97.9882 9.68546 96.883 8.58921C95.7778 7.49297 95.1569 6.00614 95.1569 4.45581C95.1569 6.00614 94.5359 7.49297 93.4307 8.58921C92.3255 9.68546 90.8265 10.3013 89.2634 10.3013C90.8265 10.3013 92.3255 10.9172 93.4307 12.0134C94.5359 13.1097 95.1569 14.5965 95.1569 16.1468C95.1569 14.5965 95.7778 13.1097 96.883 12.0134C97.9882 10.9172 99.4873 10.3013 101.05 10.3013Z" fill="#FFE885"/>
<path d="M104.766 60.6921C104.636 60.6924 104.507 60.6661 104.388 60.6149L73.7557 47.5933C73.529 47.4972 73.3483 47.3183 73.2508 47.0937C73.1533 46.8691 73.1466 46.616 73.232 46.3866C73.5136 45.6308 73.8307 44.8769 74.1737 44.1477C75.331 41.7858 76.7877 39.5802 78.5085 37.5845C80.2084 35.5429 81.5158 33.2091 82.3657 30.6991C82.406 30.5802 82.4696 30.4703 82.5527 30.3758C82.6358 30.2812 82.7369 30.2039 82.8502 30.1481C82.9635 30.0922 83.0867 30.0591 83.2129 30.0506C83.3391 30.042 83.4657 30.0582 83.5856 30.0982C83.7055 30.1382 83.8163 30.2012 83.9116 30.2836C84.0069 30.3661 84.085 30.4664 84.1412 30.5787C84.1975 30.6911 84.2309 30.8133 84.2395 30.9385C84.2481 31.0636 84.2318 31.1893 84.1915 31.3082C83.2652 34.0364 81.8422 36.5731 79.9932 38.7921C78.3745 40.6658 77.0037 42.7369 75.914 44.955C75.7218 45.3649 75.5383 45.7811 75.3634 46.2036L104.646 58.6514L120.091 47.6905L88.8866 34.4201C88.7676 34.373 88.6593 34.3026 88.5681 34.2133C88.4769 34.124 88.4046 34.0175 88.3555 33.9001C88.3064 33.7827 88.2815 33.6567 88.2823 33.5295C88.283 33.4024 88.3094 33.2767 88.3598 33.1599C88.4103 33.043 88.4838 32.9373 88.576 32.8491C88.6683 32.7608 88.7774 32.6917 88.8969 32.6459C89.0165 32.6001 89.1441 32.5785 89.2722 32.5823C89.4003 32.5862 89.5263 32.6154 89.6429 32.6683L122.419 46.6011C122.575 46.6677 122.711 46.7744 122.812 46.9102C122.914 47.0461 122.977 47.2062 122.995 47.3741C123.013 47.5421 122.986 47.7119 122.917 47.8661C122.847 48.0204 122.738 48.1535 122.599 48.2519L105.325 60.5138C105.162 60.6297 104.967 60.692 104.766 60.6921Z" fill="#785AE6"/>
<path d="M61.5001 79.0856C61.3699 79.0856 61.2411 79.0593 61.1215 79.0084L17.8553 60.6188C17.6825 60.5453 17.5353 60.4231 17.4318 60.2674C17.3283 60.1117 17.2732 59.9294 17.2732 59.7429C17.2732 59.5564 17.3283 59.374 17.4318 59.2183C17.5353 59.0627 17.6825 58.9405 17.8553 58.867L48.4131 45.8759C48.5328 45.8249 48.6618 45.7987 48.7921 45.7987C48.9224 45.7987 49.0513 45.8251 49.171 45.8761C49.2907 45.927 49.3988 46.0017 49.4885 46.0954C49.5782 46.189 49.6478 46.2999 49.6931 46.4211C50.4264 48.267 50.8281 50.226 50.8798 52.2094V63.6021C50.8811 64.8603 51.3856 66.0667 52.2826 66.9564C53.1796 67.8461 54.3958 68.3464 55.6643 68.3477H67.2455C68.5141 68.3464 69.7303 67.8461 70.6273 66.9564C71.5243 66.0667 72.0288 64.8603 72.0301 63.6021V52.2056C72.0856 50.2112 72.4928 48.2418 73.2331 46.3868C73.2784 46.2655 73.348 46.1547 73.4377 46.061C73.5275 45.9673 73.6355 45.8927 73.7552 45.8417C73.8749 45.7907 74.0038 45.7644 74.1341 45.7644C74.2644 45.7644 74.3934 45.7906 74.5131 45.8416L105.146 58.8632C105.319 58.9367 105.466 59.0588 105.569 59.2145C105.673 59.3702 105.728 59.5526 105.728 59.7391C105.728 59.9255 105.673 60.1079 105.569 60.2636C105.466 60.4193 105.319 60.5415 105.146 60.615L61.8797 79.0103C61.7596 79.0607 61.6305 79.0863 61.5001 79.0856ZM20.6727 59.7372L61.5001 77.0955L102.327 59.7391L74.7053 47.9966C74.2387 49.3531 73.9843 50.7726 73.951 52.2056V63.6021C73.9489 65.3657 73.2417 67.0564 71.9845 68.3034C70.7272 69.5505 69.0226 70.2519 67.2446 70.254H55.6672C53.8892 70.2519 52.1846 69.5505 50.9273 68.3034C49.6701 67.0564 48.9629 65.3657 48.9608 63.6021V52.2056C48.9299 50.7835 48.6804 49.3745 48.2209 48.0271L20.6727 59.7372Z" fill="#785AE6"/>
<path d="M67.2454 70.2537H55.6671C53.8891 70.2517 52.1844 69.5502 50.9272 68.3032C49.6699 67.0562 48.9627 65.3654 48.9607 63.6018V52.2053C48.9607 51.9525 49.0619 51.7101 49.2421 51.5314C49.4224 51.3526 49.6668 51.2522 49.9216 51.2522H72.9899C73.2448 51.2522 73.4892 51.3526 73.6694 51.5314C73.8496 51.7101 73.9508 51.9525 73.9508 52.2053V63.6018C73.9488 65.3652 73.2417 67.0558 71.9847 68.3028C70.7276 69.5499 69.0233 70.2514 67.2454 70.2537ZM50.8826 53.1584V63.6018C50.8838 64.8601 51.3883 66.0664 52.2853 66.9561C53.1823 67.8458 54.3985 68.3462 55.6671 68.3474H67.2454C68.5139 68.3462 69.7302 67.8458 70.6272 66.9561C71.5242 66.0664 72.0286 64.8601 72.0299 63.6018V53.1584H50.8826Z" fill="#785AE6"/>
<path d="M72.99 53.1588H49.9217C49.6668 53.1588 49.4224 53.0583 49.2422 52.8796C49.062 52.7009 48.9608 52.4584 48.9608 52.2056C48.8359 49.6771 48.1661 47.2044 46.9966 44.9543C45.907 42.7365 44.5366 40.6658 42.9184 38.7923C38.9528 34.0423 37.0134 27.9444 37.5133 21.7972C38.0132 15.65 40.9128 9.93915 45.5946 5.8809C50.0056 2.11221 55.634 0.0393066 61.4558 0.0393066C67.2777 0.0393066 72.9061 2.11221 77.3171 5.8809C77.4117 5.96376 77.489 6.0643 77.5444 6.17678C77.5999 6.28925 77.6325 6.41147 77.6404 6.53644C77.6482 6.66141 77.6312 6.78669 77.5902 6.90512C77.5492 7.02356 77.4852 7.13284 77.4016 7.22671C77.3181 7.32059 77.2167 7.39722 77.1033 7.45224C76.9899 7.50726 76.8667 7.53959 76.7407 7.54738C76.6147 7.55517 76.4884 7.53826 76.369 7.49763C76.2496 7.45701 76.1394 7.39345 76.0448 7.31059C71.9881 3.84366 66.8112 1.93666 61.4563 1.93666C56.1014 1.93666 50.9246 3.84366 46.8678 7.31059C42.561 11.0425 39.8932 16.2947 39.4326 21.9487C38.972 27.6026 40.7551 33.2116 44.4021 37.5809C46.1238 39.5765 47.5815 41.7821 48.7397 44.1441C49.8588 46.3708 50.5716 48.7764 50.8452 51.2496H72.0703C72.3435 48.7763 73.0567 46.3705 74.1767 44.1441C75.3335 41.7838 76.7893 39.5795 78.5086 37.5847C81.1461 34.3894 82.82 30.5201 83.3375 26.4225C83.855 22.3249 83.1951 18.1656 81.4337 14.4238C81.3801 14.3104 81.3495 14.1877 81.3437 14.0626C81.3378 13.9376 81.3569 13.8126 81.3998 13.6948C81.4427 13.5771 81.5085 13.4689 81.5936 13.3763C81.6786 13.2838 81.7812 13.2088 81.8955 13.1556C82.0097 13.1024 82.1334 13.0721 82.2595 13.0663C82.3856 13.0605 82.5116 13.0794 82.6303 13.122C82.7491 13.1645 82.8582 13.2298 82.9515 13.3142C83.0447 13.3985 83.1203 13.5003 83.174 13.6136C85.0891 17.6815 85.8066 22.2032 85.2439 26.6578C84.6811 31.1125 82.861 35.3189 79.9933 38.7923C78.3746 40.666 77.0038 42.737 75.9141 44.9552C74.7436 47.2047 74.0735 49.6772 73.949 52.2056C73.949 52.4581 73.848 52.7002 73.6682 52.8789C73.4884 53.0576 73.2445 53.1583 72.99 53.1588Z" fill="#785AE6"/>
<path d="M61.5001 60.6921H50.0101C49.7553 60.6921 49.5109 60.5917 49.3306 60.413C49.1504 60.2342 49.0492 59.9918 49.0492 59.739C49.0492 59.4862 49.1504 59.2438 49.3306 59.0651C49.5109 58.8863 49.7553 58.7859 50.0101 58.7859H61.5001C61.7549 58.7859 61.9993 58.8863 62.1795 59.0651C62.3598 59.2438 62.461 59.4862 62.461 59.739C62.461 59.9918 62.3598 60.2342 62.1795 60.413C61.9993 60.5917 61.7549 60.6921 61.5001 60.6921Z" fill="#785AE6"/>
<path d="M61.5 122C61.2451 122 61.0007 121.9 60.8205 121.721C60.6403 121.542 60.5391 121.3 60.5391 121.047V78.1324C60.5391 77.9572 60.5878 77.7854 60.6798 77.6359C60.7719 77.4864 60.9037 77.3649 61.0608 77.2848C61.2179 77.2048 61.3942 77.1692 61.5703 77.182C61.7465 77.1948 61.9156 77.2555 62.0593 77.3575L78.893 89.3078L91.3928 83.9941C91.5094 83.9412 91.6354 83.912 91.7635 83.9082C91.8917 83.9043 92.0192 83.926 92.1388 83.9718C92.2584 84.0176 92.3675 84.0866 92.4597 84.1749C92.552 84.2632 92.6255 84.3688 92.6759 84.4857C92.7264 84.6026 92.7527 84.7283 92.7535 84.8554C92.7542 84.9825 92.7293 85.1085 92.6802 85.2259C92.6311 85.3434 92.5588 85.4499 92.4676 85.5392C92.3764 85.6285 92.2681 85.6988 92.1491 85.746L79.1524 91.2741C79.0006 91.3388 78.8345 91.3636 78.6703 91.346C78.506 91.3285 78.349 91.2693 78.2145 91.174L62.4609 79.9862V119.601L103.805 102.026V80.7888L99.9106 82.4453C99.6777 82.5376 99.4177 82.5359 99.186 82.4406C98.9543 82.3454 98.7694 82.164 98.6707 81.9354C98.572 81.7067 98.5673 81.4488 98.6577 81.2168C98.748 80.9847 98.9263 80.7969 99.1543 80.6934L104.389 78.4688C104.535 78.4067 104.694 78.3815 104.853 78.3955C105.011 78.4095 105.163 78.4623 105.296 78.5491C105.429 78.6359 105.538 78.7541 105.613 78.8929C105.689 79.0318 105.728 79.187 105.728 79.3448V102.652C105.728 102.838 105.673 103.02 105.569 103.176C105.466 103.332 105.319 103.454 105.146 103.527L61.8796 121.923C61.7598 121.974 61.6305 122 61.5 122Z" fill="#785AE6"/>
<path d="M61.5 122C61.3698 122 61.2409 121.974 61.1214 121.923L17.8552 103.527C17.6823 103.454 17.535 103.332 17.4315 103.176C17.328 103.02 17.2728 102.838 17.2728 102.651V79.3428C17.2728 79.1851 17.3123 79.0299 17.3877 78.891C17.4631 78.7521 17.5721 78.634 17.7049 78.5472C17.8376 78.4604 17.99 78.4076 18.1484 78.3936C18.3068 78.3796 18.4662 78.4048 18.6124 78.4669L23.8466 80.6915C24.0747 80.795 24.2529 80.9828 24.3433 81.2148C24.4336 81.4469 24.429 81.7048 24.3303 81.9334C24.2315 82.1621 24.0466 82.3434 23.8149 82.4387C23.5833 82.534 23.3232 82.5356 23.0903 82.4433L19.1947 80.7887V102.026L60.539 119.601V79.9862L44.7864 91.1683C44.6519 91.2635 44.495 91.3228 44.3307 91.3403C44.1664 91.3578 44.0003 91.333 43.8485 91.2683L30.8518 85.7402C30.6238 85.6367 30.4455 85.4489 30.3552 85.2169C30.2648 84.9848 30.2695 84.727 30.3682 84.4983C30.4669 84.2696 30.6518 84.0883 30.8835 83.993C31.1152 83.8977 31.3752 83.8961 31.6081 83.9884L44.107 89.3078L60.9407 77.3565C61.0844 77.2545 61.2537 77.1938 61.4299 77.181C61.6061 77.1682 61.7825 77.2039 61.9396 77.2841C62.0968 77.3643 62.2285 77.4859 62.3205 77.6355C62.4125 77.7852 62.4611 77.9571 62.4609 78.1324V121.047C62.4609 121.3 62.3597 121.542 62.1795 121.721C61.9993 121.9 61.7548 122 61.5 122Z" fill="#785AE6"/>
<path d="M78.7728 91.3465C78.5722 91.3464 78.3767 91.2841 78.2136 91.1682L60.9407 78.9072C60.8022 78.8089 60.6926 78.6757 60.6231 78.5215C60.5535 78.3673 60.5265 78.1975 60.5449 78.0295C60.5633 77.8615 60.6264 77.7014 60.7277 77.5656C60.829 77.4297 60.9648 77.323 61.1214 77.2564L104.388 58.8611C104.539 58.7964 104.705 58.7716 104.87 58.7892C105.034 58.8067 105.191 58.8659 105.325 58.9612L122.598 71.2222C122.737 71.3206 122.846 71.4537 122.916 71.6079C122.986 71.7622 123.013 71.932 122.994 72.0999C122.976 72.2679 122.913 72.428 122.811 72.5639C122.71 72.6997 122.574 72.8064 122.418 72.873L99.9106 82.4452C99.6777 82.5375 99.4177 82.5359 99.186 82.4406C98.9543 82.3453 98.7694 82.164 98.6707 81.9353C98.572 81.7067 98.5673 81.4488 98.6577 81.2167C98.748 80.9847 98.9263 80.7969 99.1543 80.6934L120.093 71.7922L104.646 60.8255L63.4459 78.3411L78.893 89.3077L91.3928 83.9941C91.5094 83.9412 91.6354 83.912 91.7635 83.9081C91.8917 83.9043 92.0192 83.9259 92.1388 83.9717C92.2584 84.0175 92.3675 84.0866 92.4597 84.1749C92.552 84.2631 92.6255 84.3688 92.6759 84.4857C92.7264 84.6025 92.7527 84.7282 92.7535 84.8553C92.7542 84.9825 92.7293 85.1084 92.6802 85.2259C92.6311 85.3433 92.5588 85.4498 92.4676 85.5391C92.3764 85.6284 92.2681 85.6987 92.1491 85.7459L79.1524 91.274C79.0323 91.3238 78.903 91.3485 78.7728 91.3465Z" fill="#785AE6"/>
<path d="M44.2271 91.3465C44.0969 91.3469 43.9681 91.3206 43.8485 91.2693L30.8519 85.7412C30.6238 85.6377 30.4455 85.4499 30.3552 85.2179C30.2648 84.9858 30.2695 84.7279 30.3682 84.4993C30.4669 84.2706 30.6519 84.0893 30.8835 83.994C31.1152 83.8987 31.3752 83.8971 31.6081 83.9894L44.107 89.3078L59.5522 78.3469L18.3539 60.8256L2.90683 71.7903L23.8457 80.6915C24.0737 80.795 24.252 80.9828 24.3423 81.2149C24.4327 81.4469 24.428 81.7048 24.3293 81.9335C24.2306 82.1621 24.0457 82.3435 23.814 82.4387C23.5823 82.534 23.3223 82.5357 23.0894 82.4434L0.582321 72.8759C0.425776 72.8093 0.289896 72.7026 0.188601 72.5668C0.0873065 72.4309 0.0242379 72.2708 0.00585588 72.1028C-0.0125262 71.9349 0.0144391 71.7651 0.0839894 71.6108C0.15354 71.4566 0.263175 71.3235 0.401665 71.2251L17.6745 58.9631C17.809 58.8679 17.9659 58.8086 18.1302 58.7911C18.2945 58.7736 18.4606 58.7984 18.6124 58.8631L61.8786 77.2584C62.0352 77.325 62.171 77.4317 62.2723 77.5675C62.3736 77.7034 62.4367 77.8635 62.4551 78.0315C62.4735 78.1994 62.4465 78.3692 62.3769 78.5235C62.3074 78.6777 62.1978 78.8108 62.0593 78.9092L44.7864 91.1683C44.6233 91.2841 44.4278 91.3465 44.2271 91.3465Z" fill="#785AE6"/>
<path d="M48.2198 48.0279L18.6134 60.6187C18.4911 60.6677 18.3608 60.6935 18.229 60.695C18.0293 60.6904 17.8354 60.6274 17.6716 60.5139L0.403593 48.2567C0.265144 48.1574 0.15568 48.0234 0.0863313 47.8685C0.0169827 47.7136 -0.00977798 47.5433 0.00877008 47.3748C0.0273182 47.2063 0.0905135 47.0457 0.191931 46.9093C0.293349 46.7729 0.429372 46.6656 0.586171 46.5982L33.3541 32.6731C33.4714 32.6111 33.6003 32.5739 33.7327 32.5638C33.8652 32.5538 33.9983 32.571 34.1237 32.6146C34.2491 32.6581 34.364 32.727 34.4612 32.8168C34.5584 32.9066 34.6358 33.0154 34.6884 33.1364C34.7411 33.2574 34.7679 33.3879 34.7671 33.5196C34.7663 33.6514 34.7381 33.7816 34.684 33.9019C34.63 34.0223 34.5513 34.1302 34.4531 34.219C34.3549 34.3077 34.2392 34.3752 34.1133 34.4173L2.91164 47.6848L18.3539 58.6553L47.5568 46.2361C47.8162 46.8556 48.0373 47.4465 48.2198 48.0279Z" fill="#785AE6"/>
<path d="M23.9898 28.7386C23.7349 28.7386 23.4905 28.6382 23.3103 28.4594C23.1301 28.2807 23.0289 28.0382 23.0289 27.7855C23.0263 25.4746 22.0996 23.2591 20.4521 21.6252C18.8046 19.9913 16.5709 19.0724 14.2411 19.0701C13.9862 19.0701 13.7418 18.9697 13.5616 18.7909C13.3814 18.6122 13.2802 18.3697 13.2802 18.117C13.2802 17.8642 13.3814 17.6217 13.5616 17.443C13.7418 17.2643 13.9862 17.1638 14.2411 17.1638C16.571 17.1613 18.8047 16.2422 20.4522 14.6081C22.0997 12.974 23.0263 10.7584 23.0289 8.44751C23.0289 8.19473 23.1301 7.95229 23.3103 7.77355C23.4905 7.5948 23.7349 7.49438 23.9898 7.49438C24.2447 7.49438 24.4891 7.5948 24.6693 7.77355C24.8495 7.95229 24.9507 8.19473 24.9507 8.44751C24.953 10.7584 25.8795 12.9739 27.5268 14.608C29.1741 16.2421 31.4078 17.1613 33.7376 17.1638C33.9924 17.1638 34.2368 17.2643 34.417 17.443C34.5972 17.6217 34.6985 17.8642 34.6985 18.117C34.6985 18.3697 34.5972 18.6122 34.417 18.7909C34.2368 18.9697 33.9924 19.0701 33.7376 19.0701C31.4079 19.0726 29.1744 19.9916 27.5271 21.6255C25.8798 23.2595 24.9533 25.4748 24.9507 27.7855C24.9507 28.0382 24.8495 28.2807 24.6693 28.4594C24.4891 28.6382 24.2447 28.7386 23.9898 28.7386ZM18.6749 18.1179C21.0271 19.1853 22.9137 21.0565 23.9898 23.3897C25.0669 21.0558 26.9549 19.1845 29.3086 18.1179C26.9563 17.0506 25.0697 15.1793 23.9936 12.8462C22.9166 15.18 21.0286 17.0513 18.6749 18.1179Z" fill="#785AE6"/>
<path d="M95.1568 17.0999C94.902 17.0999 94.6576 16.9995 94.4774 16.8208C94.2972 16.642 94.1959 16.3996 94.1959 16.1468C94.1946 14.8494 93.6745 13.6055 92.7495 12.6881C91.8246 11.7707 90.5705 11.2547 89.2625 11.2535C89.0076 11.2535 88.7632 11.153 88.583 10.9743C88.4028 10.7955 88.3015 10.5531 88.3015 10.3003C88.3015 10.0475 88.4028 9.80511 88.583 9.62637C88.7632 9.44762 89.0076 9.3472 89.2625 9.3472C90.5705 9.34594 91.8246 8.82999 92.7495 7.91258C93.6745 6.99517 94.1946 5.75127 94.1959 4.45386C94.1959 4.20107 94.2972 3.95864 94.4774 3.7799C94.6576 3.60115 94.902 3.50073 95.1568 3.50073C95.4117 3.50073 95.6561 3.60115 95.8363 3.7799C96.0165 3.95864 96.1178 4.20107 96.1178 4.45386C96.1191 5.7511 96.6391 6.99487 97.5638 7.91224C98.4885 8.82962 99.7424 9.34569 101.05 9.3472C101.305 9.3472 101.55 9.44762 101.73 9.62637C101.91 9.80511 102.011 10.0475 102.011 10.3003C102.011 10.5531 101.91 10.7955 101.73 10.9743C101.55 11.153 101.305 11.2535 101.05 11.2535C99.7424 11.255 98.4885 11.771 97.5638 12.6884C96.6391 13.6058 96.1191 14.8496 96.1178 16.1468C96.1178 16.3996 96.0165 16.642 95.8363 16.8208C95.6561 16.9995 95.4117 17.0999 95.1568 17.0999ZM92.7603 10.3003C93.7455 10.8828 94.5692 11.6994 95.1568 12.6765C95.7444 11.6991 96.568 10.8822 97.5534 10.2994C96.568 9.7166 95.7444 8.89967 95.1568 7.92228C94.5695 8.90036 93.7459 9.71797 92.7603 10.3013V10.3003Z" fill="#785AE6"/>
</g>
<defs>
<clipPath id="clip0">
<rect width="123" height="122" fill="white"/>
</clipPath>
</defs>
</svg>
