<svg width="92" height="91" viewBox="0 0 92 91" fill="none" xmlns="http://www.w3.org/2000/svg">
<path d="M46 91C71.4051 91 92 70.629 92 45.5C92 20.371 71.4051 0 46 0C20.5949 0 0 20.371 0 45.5C0 70.629 20.5949 91 46 91Z" fill="#334D5C"/>
<path opacity="0.1" d="M90.1473 58.2802L57.1814 25.6726L57.1747 25.6871C54.3545 22.6694 50.3307 20.7688 45.8467 20.7688C37.3271 20.7688 30.4175 27.6033 30.4175 36.0397C30.4175 37.4995 30.638 38.9119 31.0213 40.2485C24.4663 42.0116 19.6459 47.9266 19.6459 54.9601C19.6459 59.2338 21.4236 63.0914 24.2818 65.8629L24.2789 65.865L49.5411 90.8525C68.8879 89.3939 84.8806 76.107 90.1473 58.2802Z" fill="black"/>
<path d="M46 44.1717C48.7936 41.406 52.6542 39.6947 56.9193 39.6947C58.2243 39.6947 59.4845 39.8722 60.6949 40.1739C61.0691 38.857 61.2838 37.4735 61.2838 36.0381C61.2838 27.6062 54.3732 20.771 45.8489 20.771C37.3245 20.771 30.4139 27.6064 30.4139 36.0381C30.4139 37.4994 30.6339 38.9077 31.0215 40.2459C32.317 39.8969 33.6737 39.6945 35.081 39.6945C39.3458 39.6947 43.2065 41.406 46 44.1717Z" fill="#FCD462"/>
<path d="M42.073 50.826C36.7476 49.4989 32.5275 45.4471 31.0213 40.2461C24.4696 42.0111 19.6459 47.9218 19.6459 54.9618C19.6459 63.3935 26.5564 70.2289 35.0808 70.2289C39.3456 70.2289 43.2065 68.5177 46 65.7519C43.2099 62.9897 41.4844 59.1753 41.4844 54.962C41.4844 53.5264 41.6986 52.1429 42.073 50.826Z" fill="#44C4A1"/>
<path d="M42.073 50.8262C42.7975 48.2775 44.1602 45.9933 46 44.1718C43.2064 41.406 39.3458 39.6948 35.0807 39.6948C33.6734 39.6948 32.3167 39.8972 31.0212 40.2463C32.5275 45.4473 36.7475 49.4991 42.073 50.8262Z" fill="#3EA69B"/>
<path d="M60.6946 40.1741C59.2327 45.3163 55.1241 49.3487 49.9081 50.754C50.2957 52.0925 50.5157 53.5006 50.5157 54.9621C50.5157 59.1753 48.7902 62.9897 46 65.752C48.7935 68.518 52.6542 70.229 56.9193 70.229C65.4439 70.229 72.3542 63.3938 72.3542 54.9618C72.3542 47.8212 67.3905 41.8426 60.6946 40.1741Z" fill="#E56353"/>
<path d="M46 44.1718C47.8223 45.9762 49.1783 48.2341 49.9081 50.7539C55.1241 49.3486 59.2329 45.3162 60.6946 40.174C59.4842 39.8723 58.224 39.6948 56.919 39.6948C52.6542 39.6948 48.7935 41.4061 46 44.1718Z" fill="#F6C358"/>
<path d="M49.9081 50.7537C49.1783 48.2339 47.8223 45.976 46 44.1716C44.1605 45.9931 42.7975 48.2773 42.073 50.826C41.6986 52.1431 41.4844 53.5266 41.4844 54.9618C41.4844 59.175 43.2099 62.9894 46 65.7517C48.7902 62.9894 50.5157 59.175 50.5157 54.9618C50.5157 53.5003 50.2958 52.0922 49.9081 50.7537Z" fill="#D15241"/>
</svg>
