<svg width="50" height="50" viewBox="0 0 50 50" fill="none" xmlns="http://www.w3.org/2000/svg">
<path d="M25 50C38.8071 50 50 38.8071 50 25C50 11.1929 38.8071 0 25 0C11.1929 0 0 11.1929 0 25C0 38.8071 11.1929 50 25 50Z" fill="#4CAF50"/>
<path d="M35.15 36.7832V36.7853C34.7271 36.7853 34.4646 36.654 34.0708 36.4228C27.7812 32.6311 20.4625 32.4728 13.2333 33.954C12.8396 34.0561 12.325 34.2165 12.0333 34.2165C11.0542 34.2165 10.4396 33.4394 10.4396 32.6228C10.4396 31.5832 11.0542 31.0894 11.8125 30.929C20.0687 29.1061 28.5062 29.2665 35.7021 33.5707C36.3166 33.9644 36.6812 34.3165 36.6812 35.2332C36.6812 36.1457 35.9646 36.7832 35.15 36.7832Z" fill="#212121"/>
<path d="M37.8646 30.1728H37.8625C37.3375 30.1728 36.9854 29.9415 36.6208 29.7498C30.3187 26.0207 20.9271 24.5165 12.5687 26.7853C12.0854 26.9165 11.8229 27.0478 11.3687 27.0478C10.2896 27.0478 9.41455 26.1707 9.41455 25.0936C9.41455 24.0165 9.93955 23.2998 10.9771 23.0082C13.7791 22.2207 16.6416 21.6353 20.8354 21.6353C27.3771 21.6353 33.6979 23.2582 38.6791 26.2228C39.4958 26.7061 39.8187 27.3332 39.8187 28.2082C39.8083 29.2936 38.9625 30.1728 37.8646 30.1728Z" fill="#212121"/>
<path d="M9.47499 14.5791C13.0229 13.5395 16.9958 13.0479 21.3208 13.0479C28.6792 13.0479 36.3917 14.5791 42.0271 17.8666C42.8146 18.3208 43.3271 18.9458 43.3271 20.1437C43.3271 21.5145 42.2167 22.4916 40.9896 22.4916L40.9875 22.4895C40.4625 22.4895 40.1396 22.3583 39.6854 22.0958C32.5104 17.8124 19.675 16.7854 11.3708 19.1041C11.0062 19.2041 10.5521 19.3645 10.0687 19.3645C8.73749 19.3645 7.72083 18.3249 7.72083 16.9854C7.72083 15.6166 8.56874 14.8416 9.47499 14.5791Z" fill="#212121"/>
</svg>
