<svg width="70" height="116" viewBox="0 0 70 116" fill="none" xmlns="http://www.w3.org/2000/svg">
<path d="M55.5961 0H14.7627C7.24551 0 1.15161 6.05908 1.15161 13.5333V102.467C1.15161 109.941 7.24551 116 14.7627 116H55.5961C63.1133 116 69.2072 109.941 69.2072 102.467V13.5333C69.2072 6.05908 63.1133 0 55.5961 0Z" fill="#FDB797"/>
<path d="M16.7332 6.45691C14.4762 3.96971 16.2513 0 19.6204 0H49.3732C52.6472 0 54.456 3.777 52.3921 6.30412L47.6553 12.1041C46.9168 13.0083 45.8076 13.5333 44.6363 13.5333H24.8837C23.7829 13.5333 22.7337 13.0695 21.9964 12.2569L16.7332 6.45691Z" fill="#4176FE"/>
<path d="M35.0752 27.0667H38.9396V51.561L34.4569 54.1333H23.1344L18.6516 51.561V27.0667H22.516V50.2941H35.0752V27.0667Z" fill="white"/>
<path d="M45.8986 53.9413V27.0667H49.7629V53.9413H45.8986Z" fill="white"/>
<path d="M26.4294 65.7334H10.8739C9.8 65.7334 8.92944 66.599 8.92944 67.6667V85.0667C8.92944 86.1345 9.8 87.0001 10.8739 87.0001H26.4294C27.5033 87.0001 28.3739 86.1345 28.3739 85.0667V67.6667C28.3739 66.599 27.5033 65.7334 26.4294 65.7334Z" fill="#FC6A6A"/>
<path d="M34.2072 94.7334H10.8739C9.8 94.7334 8.92944 95.599 8.92944 96.6667V106.333C8.92944 107.401 9.8 108.267 10.8739 108.267H34.2072C35.2811 108.267 36.1517 107.401 36.1517 106.333V96.6667C36.1517 95.599 35.2811 94.7334 34.2072 94.7334Z" fill="#77B6FF"/>
<path d="M59.485 94.7334H43.9294C42.8555 94.7334 41.985 95.599 41.985 96.6667V106.333C41.985 107.401 42.8555 108.267 43.9294 108.267H59.485C60.5589 108.267 61.4294 107.401 61.4294 106.333V96.6667C61.4294 95.599 60.5589 94.7334 59.485 94.7334Z" fill="#8EFFAE"/>
<path d="M59.485 71.5332H51.7073C50.6334 71.5332 49.7628 72.3988 49.7628 73.4665V85.0665C49.7628 86.1343 50.6334 86.9999 51.7073 86.9999H59.485C60.5589 86.9999 61.4295 86.1343 61.4295 85.0665V73.4665C61.4295 72.3988 60.5589 71.5332 59.485 71.5332Z" fill="#D884FF"/>
<path d="M43.9295 77.3333H36.1517C35.0778 77.3333 34.2073 78.1988 34.2073 79.2666V85.0666C34.2073 86.1343 35.0778 86.9999 36.1517 86.9999H43.9295C45.0034 86.9999 45.8739 86.1343 45.8739 85.0666V79.2666C45.8739 78.1988 45.0034 77.3333 43.9295 77.3333Z" fill="#FFFA8C"/>
</svg>
