<svg width="68" height="116" viewBox="0 0 68 116" fill="none" xmlns="http://www.w3.org/2000/svg">
<g clip-path="url(#clip0)">
<path d="M54.4 0H13.6C6.08893 0 0 6.05908 0 13.5333V102.467C0 109.941 6.08893 116 13.6 116H54.4C61.9111 116 68 109.941 68 102.467V13.5333C68 6.05908 61.9111 0 54.4 0Z" fill="#C886FC"/>
<path d="M27.0834 25.5588H31.0857V50.4602L26.4229 53.0895H14.4549L9.71429 50.4602V25.5588H13.7943V49.1842H27.0834V25.5588Z" fill="#FEFEFE"/>
<path d="M36.0789 52.8962L45.8904 38.9568L36.4869 25.5588H41.0526L48.1246 35.7088L55.2355 25.5588H59.8206L50.3784 38.9568L60.2286 52.8962H55.6435L48.1246 42.1468L40.6446 52.8962H36.0789Z" fill="#FEFEFE"/>
<path d="M12.823 80.3684H25.6847C26.2 80.3684 26.6942 80.5721 27.0585 80.9347C27.4229 81.2972 27.6276 81.789 27.6276 82.3017V95.5257" stroke="#EDECEC" stroke-width="2"/>
<path d="M27.5107 80.6977V74.8977C27.5107 74.3849 27.7154 73.8932 28.0798 73.5306C28.4441 73.168 28.9383 72.9644 29.4536 72.9644H41.1107" stroke="#EDECEC" stroke-width="2"/>
<path d="M31.319 96.1062H52.2241C52.7394 96.1062 53.2336 95.9025 53.5979 95.5399C53.9623 95.1773 54.167 94.6856 54.167 94.1728V89.4941" stroke="#EDECEC" stroke-width="2"/>
<path d="M26.9667 80.137H53.3119C53.8272 80.137 54.3213 80.3407 54.6857 80.7032C55.05 81.0658 55.2547 81.5575 55.2547 82.0703V86.749" stroke="#EDECEC" stroke-width="2"/>
<path d="M13.872 78.4934H4.15773C2.9345 78.4934 1.94287 79.4802 1.94287 80.6974C1.94287 81.9146 2.9345 82.9014 4.15773 82.9014H13.872C15.0952 82.9014 16.0869 81.9146 16.0869 80.6974C16.0869 79.4802 15.0952 78.4934 13.872 78.4934Z" fill="#27F4E8"/>
<path d="M31.28 93.9019H21.5657C20.3425 93.9019 19.3508 94.8886 19.3508 96.1059C19.3508 97.3231 20.3425 98.3099 21.5657 98.3099H31.28C32.5032 98.3099 33.4948 97.3231 33.4948 96.1059C33.4948 94.8886 32.5032 93.9019 31.28 93.9019Z" fill="#84FE98"/>
<path d="M61.7441 70.7793H41.1498C39.9266 70.7793 38.9349 71.7661 38.9349 72.9833C38.9349 74.2005 39.9266 75.1873 41.1498 75.1873H61.7441C62.9673 75.1873 63.9589 74.2005 63.9589 72.9833C63.9589 71.7661 62.9673 70.7793 61.7441 70.7793Z" fill="#C4C4C4"/>
<path d="M62.8319 86.1882H47.6776C46.4544 86.1882 45.4628 87.175 45.4628 88.3922C45.4628 89.6095 46.4544 90.5962 47.6776 90.5962H62.8319C64.0551 90.5962 65.0468 89.6095 65.0468 88.3922C65.0468 87.175 64.0551 86.1882 62.8319 86.1882Z" fill="#C4C4C4"/>
<path d="M17.0971 6.38005C16.6132 5.81708 16.302 5.12763 16.2005 4.39372C16.099 3.65981 16.2116 2.91234 16.5247 2.24024C16.8379 1.56814 17.3384 0.999708 17.9669 0.602564C18.5953 0.205421 19.3252 -0.00371117 20.0697 4.98495e-05H48.5714C49.298 -0.00183099 50.0106 0.199071 50.6283 0.579942C51.2459 0.960813 51.7439 1.50639 52.0656 2.15473C52.3873 2.80306 52.5199 3.52817 52.4483 4.24772C52.3767 4.96727 52.1038 5.65242 51.6606 6.22538L46.92 12.238C46.558 12.7121 46.0909 13.0966 45.5551 13.3615C45.0192 13.6264 44.4292 13.7647 43.8308 13.7654H25.2571C24.6911 13.7658 24.1318 13.6432 23.6183 13.4061C23.1048 13.169 22.6496 12.8232 22.2845 12.3927L17.0971 6.38005Z" fill="#4176FE"/>
</g>
<defs>
<clipPath id="clip0">
<rect width="68" height="116" fill="white"/>
</clipPath>
</defs>
</svg>
